<svg xmlns="http://www.w3.org/2000/svg" version="1.1" xmlns:xlink="http://www.w3.org/1999/xlink" xmlns:svgjs="http://svgjs.dev/svgjs" width="1500" height="967" viewBox="0 0 1500 967"><g transform="matrix(1,0,0,1,-0.5390872193319183,0.3914979757084893)"><svg viewBox="0 0 383 247" data-background-color="#0c1d36" preserveAspectRatio="xMidYMid meet" height="967" width="1500" xmlns="http://www.w3.org/2000/svg" xmlns:xlink="http://www.w3.org/1999/xlink"><g id="tight-bounds" transform="matrix(1,0,0,1,0.13764693666942662,-0.09999999999999432)"><svg viewBox="0 0 382.72470612666115 247.2" height="247.2" width="382.72470612666115"><g><svg viewBox="0 0 397.49759999999986 256.7417392894431" height="247.2" width="382.72470612666115"><g><rect width="397.49759999999986" height="4.4637379340384635" x="0" y="138.51432251401002" fill="#f9cc0b" opacity="1" stroke-width="0" stroke="transparent" fill-opacity="1" class="rect-qz-0" data-fill-palette-color="primary" rx="1%" id="qz-0" data-palette-color="#f9cc0b"></rect></g><g><rect width="397.49759999999986" height="4.4637379340384635" x="0" y="148.820649366947" fill="#f9cc0b" opacity="1" stroke-width="0" stroke="transparent" fill-opacity="1" class="rect-qz-1" data-fill-palette-color="primary" rx="1%" id="qz-1" data-palette-color="#f9cc0b"></rect></g><g transform="matrix(1,0,0,1,0.9887999999999693,164.9695651387825)"><svg viewBox="0 0 395.5199999999999 91.77217415066062" height="91.77217415066062" width="395.5199999999999"><g id="textblocktransform"><svg viewBox="0 0 395.5199999999999 91.77217415066062" height="91.77217415066062" width="395.5199999999999" id="textblock"><g><svg viewBox="0 0 395.5199999999999 49.497525533290236" height="49.497525533290236" width="395.5199999999999"><g transform="matrix(1,0,0,1,0,0)"><svg width="395.5199999999999" viewBox="5 -34.2 386.72 48.400000000000006" height="49.497525533290236" data-palette-color="#f9cc0b"><path d="M5 0L5-34.2 8-34.2 8-2.8 25.35-2.8 25.35 0 5 0ZM46.45-25L49.45-25 49.4-6.9 49.4 5.7Q49.4 9.55 47.35 11.88 45.3 14.2 41.9 14.2L41.9 14.2Q39.8 14.2 38.07 13.18 36.35 12.15 35.37 10.35 34.4 8.55 34.4 6.3L34.4 6.3Q34.4 4.25 35.17 2.65 35.95 1.05 37.3 0.35L37.3 0.35Q33.95 0.1 31.95-1.88 29.95-3.85 29.95-6.95L29.95-6.95 29.95-17.8Q29.95-21.75 27.85-23.6L27.85-23.6 29.85-25.6Q31-24.85 31.95-23.3 32.9-21.75 32.95-19.95L32.95-19.95 32.95-8.25Q32.95-5.3 34.27-3.85 35.6-2.4 38.3-2.4L38.3-2.4Q40.5-2.4 42.22-3.35 43.95-4.3 45.7-6.45L45.7-6.45Q46.1-7 46.25-7.43 46.4-7.85 46.4-8.6L46.4-8.6 46.45-25ZM46.4 5.9L46.5-3.9Q45.85-2.85 45.3-2.27 44.75-1.7 44-1.1L44-1.1Q42.65-0.15 41 0.75L41 0.75Q39 1.8 38.15 3.05 37.3 4.3 37.3 6.2L37.3 6.2Q37.3 8.55 38.52 9.93 39.75 11.3 41.85 11.3L41.85 11.3Q43.9 11.3 45.12 9.85 46.35 8.4 46.4 5.9L46.4 5.9ZM66.4 0.5Q62.95 0.5 60.5-1.25 58.05-3 56.8-5.9 55.55-8.8 55.55-12.3L55.55-12.3Q55.55-16.15 57.05-19.13 58.55-22.1 61.35-23.75 64.15-25.4 67.9-25.4L67.9-25.4Q69.05-25.4 70.8-25.28 72.55-25.15 73.9-24.95L73.9-24.95 76.9-24.95 76.9-4.3Q76.9-3.3 77.37-2.78 77.84-2.25 78.55-2.25L78.55-2.25Q79.45-2.25 80-3.1L80-3.1 82.15-1.4Q81.4-0.35 80.47 0.08 79.55 0.5 78.34 0.5L78.34 0.5Q76.59 0.5 75.27-0.7 73.95-1.9 73.95-3.6L73.95-3.6Q72.75-1.6 70.8-0.55 68.84 0.5 66.4 0.5L66.4 0.5ZM66.45-2.2Q68.7-2.2 70.5-3.3 72.3-4.4 73.2-6.2L73.2-6.2Q73.9-7.65 73.9-9.4L73.9-9.4 73.9-22.5 70.59-22.6 67.7-22.7Q63.15-22.7 60.85-19.85 58.55-17 58.55-12.4L58.55-12.4Q58.55-8.15 60.57-5.18 62.6-2.2 66.45-2.2L66.45-2.2ZM122.44-3.4L124.64-1.75Q124.24-0.9 123.24-0.33 122.24 0.25 120.99 0.25L120.99 0.25Q118.99 0.25 117.69-1 116.39-2.25 116.39-4.25L116.39-4.25 116.39-17.5Q116.24-20.2 115.04-21.48 113.84-22.75 111.54-22.75L111.54-22.75Q107.04-22.75 104.44-17.8L104.44-17.8 104.44 0 101.44 0 101.44-16.8Q101.44-19.6 100.24-21.18 99.04-22.75 96.64-22.75L96.64-22.75Q94.34-22.75 92.37-21.35 90.39-19.95 89.54-17.9L89.54-17.9 89.54 0 86.54 0 86.54-17.5Q86.54-21.45 84.44-23.3L84.44-23.3 86.44-25.3Q87.29-24.7 88.09-23.65 88.89-22.6 89.29-21.3L89.29-21.3Q90.64-23.3 92.57-24.38 94.49-25.45 96.89-25.45L96.89-25.45Q99.34-25.45 101.12-24.3 102.89-23.15 103.79-20.9L103.79-20.9Q105.19-23.1 107.17-24.28 109.14-25.45 111.59-25.45L111.59-25.45Q115.14-25.45 117.27-23.28 119.39-21.1 119.39-17.55L119.39-17.55 119.39-4.2Q119.39-3.5 119.87-3.03 120.34-2.55 120.99-2.55L120.99-2.55Q121.99-2.55 122.44-3.4L122.44-3.4ZM164.94-3.4L167.14-1.75Q166.74-0.9 165.74-0.33 164.74 0.25 163.49 0.25L163.49 0.25Q161.49 0.25 160.19-1 158.89-2.25 158.89-4.25L158.89-4.25 158.89-17.5Q158.74-20.2 157.54-21.48 156.34-22.75 154.04-22.75L154.04-22.75Q149.54-22.75 146.94-17.8L146.94-17.8 146.94 0 143.94 0 143.94-16.8Q143.94-19.6 142.74-21.18 141.54-22.75 139.14-22.75L139.14-22.75Q136.84-22.75 134.87-21.35 132.89-19.95 132.04-17.9L132.04-17.9 132.04 0 129.04 0 129.04-17.5Q129.04-21.45 126.94-23.3L126.94-23.3 128.94-25.3Q129.79-24.7 130.59-23.65 131.39-22.6 131.79-21.3L131.79-21.3Q133.14-23.3 135.06-24.38 136.99-25.45 139.39-25.45L139.39-25.45Q141.84-25.45 143.62-24.3 145.39-23.15 146.29-20.9L146.29-20.9Q147.69-23.1 149.67-24.28 151.64-25.45 154.09-25.45L154.09-25.45Q157.64-25.45 159.77-23.28 161.89-21.1 161.89-17.55L161.89-17.55 161.89-4.2Q161.89-3.5 162.37-3.03 162.84-2.55 163.49-2.55L163.49-2.55Q164.49-2.55 164.94-3.4L164.94-3.4ZM179.79 0.5Q176.34 0.5 173.89-1.25 171.44-3 170.19-5.9 168.94-8.8 168.94-12.3L168.94-12.3Q168.94-16.15 170.44-19.13 171.94-22.1 174.74-23.75 177.54-25.4 181.29-25.4L181.29-25.4Q182.44-25.4 184.19-25.28 185.94-25.15 187.29-24.95L187.29-24.95 190.29-24.95 190.29-4.3Q190.29-3.3 190.76-2.78 191.24-2.25 191.94-2.25L191.94-2.25Q192.84-2.25 193.39-3.1L193.39-3.1 195.54-1.4Q194.79-0.35 193.86 0.08 192.94 0.5 191.74 0.5L191.74 0.5Q189.99 0.5 188.66-0.7 187.34-1.9 187.34-3.6L187.34-3.6Q186.14-1.6 184.19-0.55 182.24 0.5 179.79 0.5L179.79 0.5ZM179.84-2.2Q182.09-2.2 183.89-3.3 185.69-4.4 186.59-6.2L186.59-6.2Q187.29-7.65 187.29-9.4L187.29-9.4 187.29-22.5 183.99-22.6 181.09-22.7Q176.54-22.7 174.24-19.85 171.94-17 171.94-12.4L171.94-12.4Q171.94-8.15 173.96-5.18 175.99-2.2 179.84-2.2L179.84-2.2ZM201.19 0L201.19-34.2 204.19-34.2 204.19-2.8 221.54-2.8 221.54 0 201.19 0ZM242.63-25L245.63-25 245.58-6.9 245.58 5.7Q245.58 9.55 243.53 11.88 241.48 14.2 238.08 14.2L238.08 14.2Q235.98 14.2 234.26 13.18 232.53 12.15 231.56 10.35 230.58 8.55 230.58 6.3L230.58 6.3Q230.58 4.25 231.36 2.65 232.13 1.05 233.48 0.35L233.48 0.35Q230.13 0.1 228.13-1.88 226.13-3.85 226.13-6.95L226.13-6.95 226.13-17.8Q226.13-21.75 224.03-23.6L224.03-23.6 226.03-25.6Q227.18-24.85 228.13-23.3 229.08-21.75 229.13-19.95L229.13-19.95 229.13-8.25Q229.13-5.3 230.46-3.85 231.78-2.4 234.48-2.4L234.48-2.4Q236.68-2.4 238.41-3.35 240.13-4.3 241.88-6.45L241.88-6.45Q242.28-7 242.43-7.43 242.58-7.85 242.58-8.6L242.58-8.6 242.63-25ZM242.58 5.9L242.68-3.9Q242.03-2.85 241.48-2.27 240.93-1.7 240.18-1.1L240.18-1.1Q238.83-0.15 237.18 0.75L237.18 0.75Q235.18 1.8 234.33 3.05 233.48 4.3 233.48 6.2L233.48 6.2Q233.48 8.55 234.71 9.93 235.93 11.3 238.03 11.3L238.03 11.3Q240.08 11.3 241.31 9.85 242.53 8.4 242.58 5.9L242.58 5.9ZM262.58 0.5Q259.13 0.5 256.68-1.25 254.23-3 252.98-5.9 251.73-8.8 251.73-12.3L251.73-12.3Q251.73-16.15 253.23-19.13 254.73-22.1 257.53-23.75 260.33-25.4 264.08-25.4L264.08-25.4Q265.23-25.4 266.98-25.28 268.73-25.15 270.08-24.95L270.08-24.95 273.08-24.95 273.08-4.3Q273.08-3.3 273.56-2.78 274.03-2.25 274.73-2.25L274.73-2.25Q275.63-2.25 276.18-3.1L276.18-3.1 278.33-1.4Q277.58-0.35 276.66 0.08 275.73 0.5 274.53 0.5L274.53 0.5Q272.78 0.5 271.46-0.7 270.13-1.9 270.13-3.6L270.13-3.6Q268.93-1.6 266.98-0.55 265.03 0.5 262.58 0.5L262.58 0.5ZM262.63-2.2Q264.88-2.2 266.68-3.3 268.48-4.4 269.38-6.2L269.38-6.2Q270.08-7.65 270.08-9.4L270.08-9.4 270.08-22.5 266.78-22.6 263.88-22.7Q259.33-22.7 257.03-19.85 254.73-17 254.73-12.4L254.73-12.4Q254.73-8.15 256.76-5.18 258.78-2.2 262.63-2.2L262.63-2.2ZM318.63-3.4L320.83-1.75Q320.43-0.9 319.43-0.33 318.43 0.25 317.18 0.25L317.18 0.25Q315.18 0.25 313.88-1 312.58-2.25 312.58-4.25L312.58-4.25 312.58-17.5Q312.43-20.2 311.23-21.48 310.03-22.75 307.73-22.75L307.73-22.75Q303.23-22.75 300.63-17.8L300.63-17.8 300.63 0 297.63 0 297.63-16.8Q297.63-19.6 296.43-21.18 295.23-22.75 292.83-22.75L292.83-22.75Q290.53-22.75 288.55-21.35 286.58-19.95 285.73-17.9L285.73-17.9 285.73 0 282.73 0 282.73-17.5Q282.73-21.45 280.63-23.3L280.63-23.3 282.63-25.3Q283.48-24.7 284.28-23.65 285.08-22.6 285.48-21.3L285.48-21.3Q286.83-23.3 288.75-24.38 290.68-25.45 293.08-25.45L293.08-25.45Q295.53-25.45 297.3-24.3 299.08-23.15 299.98-20.9L299.98-20.9Q301.38-23.1 303.35-24.28 305.33-25.45 307.78-25.45L307.78-25.45Q311.33-25.45 313.45-23.28 315.58-21.1 315.58-17.55L315.58-17.55 315.58-4.2Q315.58-3.5 316.05-3.03 316.53-2.55 317.18-2.55L317.18-2.55Q318.18-2.55 318.63-3.4L318.63-3.4ZM361.13-3.4L363.33-1.75Q362.93-0.9 361.93-0.33 360.93 0.25 359.68 0.25L359.68 0.25Q357.68 0.25 356.38-1 355.08-2.25 355.08-4.25L355.08-4.25 355.08-17.5Q354.93-20.2 353.73-21.48 352.53-22.75 350.23-22.75L350.23-22.75Q345.73-22.75 343.13-17.8L343.13-17.8 343.13 0 340.13 0 340.13-16.8Q340.13-19.6 338.93-21.18 337.73-22.75 335.33-22.75L335.33-22.75Q333.03-22.75 331.05-21.35 329.08-19.95 328.23-17.9L328.23-17.9 328.23 0 325.23 0 325.23-17.5Q325.23-21.45 323.13-23.3L323.13-23.3 325.13-25.3Q325.98-24.7 326.78-23.65 327.58-22.6 327.98-21.3L327.98-21.3Q329.33-23.3 331.25-24.38 333.18-25.45 335.58-25.45L335.58-25.45Q338.03-25.45 339.8-24.3 341.58-23.15 342.48-20.9L342.48-20.9Q343.88-23.1 345.85-24.28 347.83-25.45 350.28-25.45L350.28-25.45Q353.83-25.45 355.95-23.28 358.08-21.1 358.08-17.55L358.08-17.55 358.08-4.2Q358.08-3.5 358.55-3.03 359.03-2.55 359.68-2.55L359.68-2.55Q360.68-2.55 361.13-3.4L361.13-3.4ZM375.97 0.5Q372.52 0.5 370.07-1.25 367.62-3 366.37-5.9 365.12-8.8 365.12-12.3L365.12-12.3Q365.12-16.15 366.62-19.13 368.12-22.1 370.92-23.75 373.72-25.4 377.47-25.4L377.47-25.4Q378.62-25.4 380.37-25.28 382.12-25.15 383.47-24.95L383.47-24.95 386.47-24.95 386.47-4.3Q386.47-3.3 386.95-2.78 387.42-2.25 388.12-2.25L388.12-2.25Q389.02-2.25 389.57-3.1L389.57-3.1 391.72-1.4Q390.97-0.35 390.05 0.08 389.12 0.5 387.92 0.5L387.92 0.5Q386.17 0.5 384.85-0.7 383.52-1.9 383.52-3.6L383.52-3.6Q382.32-1.6 380.37-0.55 378.42 0.5 375.97 0.5L375.97 0.5ZM376.02-2.2Q378.27-2.2 380.07-3.3 381.87-4.4 382.77-6.2L382.77-6.2Q383.47-7.65 383.47-9.4L383.47-9.4 383.47-22.5 380.17-22.6 377.27-22.7Q372.72-22.7 370.42-19.85 368.12-17 368.12-12.4L368.12-12.4Q368.12-8.15 370.15-5.18 372.17-2.2 376.02-2.2L376.02-2.2Z" opacity="1" transform="matrix(1,0,0,1,0,0)" fill="#f9cc0b" class="wordmark-text-0" data-fill-palette-color="primary" id="text-0"></path></svg></g></svg></g><g transform="matrix(1,0,0,1,0,61.182703371087264)"><svg viewBox="0 0 395.5199999999999 30.589470779573364" height="30.589470779573364" width="395.5199999999999"><g transform="matrix(1,0,0,1,0,0)"><svg width="395.5199999999999" viewBox="2.25 -33.25 568.92 44" height="30.589470779573364" data-palette-color="#f9cc0b"><path d="M2.25 0L2.25-0.5 2.5-0.5Q2.9-0.5 3.2-0.78 3.5-1.05 3.73-1.45 3.95-1.85 4.08-2.3 4.2-2.75 4.2-3.15L4.2-3.15 4.2-29.9Q4.2-30.25 4.08-30.7 3.95-31.15 3.73-31.55 3.5-31.95 3.2-32.23 2.9-32.5 2.5-32.5L2.5-32.5 2.25-32.5 2.25-33 9.45-33 9.45-32.5 9.2-32.5Q8.8-32.5 8.5-32.23 8.2-31.95 8-31.55 7.8-31.15 7.68-30.7 7.55-30.25 7.55-29.9L7.55-29.9 7.55-1.85 18.5-1.85Q19.45-1.85 20.15-2.3 20.85-2.75 21.33-3.43 21.8-4.1 22.03-4.88 22.25-5.65 22.25-6.3L22.25-6.3 22.75-6.3 22.75 0 2.25 0ZM51.44 0L46.59 0 46.59-2.55 46.34-2.3Q45.09-1.05 43.46-0.35 41.84 0.35 39.54 0.35L39.54 0.35Q37.79 0.35 36.54-0.05 35.29-0.45 34.49-1.18 33.69-1.9 33.31-2.85 32.94-3.8 32.94-4.85L32.94-4.85Q32.94-6.55 33.86-7.85 34.79-9.15 36.54-10.15 38.29-11.15 40.81-11.98 43.34-12.8 46.59-13.6L46.59-13.6Q46.49-15.55 45.79-16.75 45.09-17.95 44.14-18.63 43.19-19.3 42.14-19.53 41.09-19.75 40.34-19.75L40.34-19.75Q39.04-19.75 38.06-19.35 37.09-18.95 36.36-18.32 35.64-17.7 35.14-16.98 34.64-16.25 34.34-15.6L34.34-15.6 33.89-15.6 33.89-19.25Q34.29-19.3 34.64-19.5 34.99-19.7 35.49-19.9L35.49-19.9Q36.24-20.2 37.54-20.78 38.84-21.35 41.19-21.35L41.19-21.35Q43.94-21.35 45.64-20.65 47.34-19.95 48.26-18.8 49.19-17.65 49.49-16.18 49.79-14.7 49.79-13.15L49.79-13.15 49.79-3.25Q49.79-2.25 50.24-1.38 50.69-0.5 51.44-0.5L51.44-0.5 51.44 0ZM46.04-4.15L46.59-4.75 46.59-11.9 46.09-11.8Q44.89-11.5 43.16-11 41.44-10.5 39.89-9.7 38.34-8.9 37.24-7.8 36.14-6.7 36.14-5.25L36.14-5.25Q36.14-3.65 37.44-2.6 38.74-1.55 40.84-1.55L40.84-1.55Q42.49-1.55 43.74-2.27 44.99-3 46.04-4.15L46.04-4.15ZM104.51 0L101.66 0Q100.81 0 100.08-0.38 99.36-0.75 98.81-1.2L98.81-1.2Q98.16-1.75 97.61-2.4L97.61-2.4 91.16-10.7 90.11-9.65 90.11-3.15Q90.11-2.8 90.21-2.35 90.31-1.9 90.53-1.48 90.76-1.05 91.06-0.78 91.36-0.5 91.76-0.5L91.76-0.5 91.76 0 85.26 0 85.26-0.5Q85.61-0.5 85.91-0.78 86.21-1.05 86.41-1.45 86.61-1.85 86.71-2.3 86.81-2.75 86.81-3.15L86.81-3.15 86.81-28.6Q86.81-29.3 86.36-30 85.91-30.7 85.16-30.75L85.16-30.75 85.16-31.25 90.11-32.8 90.11-11.95 98.21-19.55Q98.46-19.8 98.46-20.15L98.46-20.15Q98.46-20.5 98.11-20.5L98.11-20.5 98.11-21 102.61-21 102.61-20.5Q102.31-20.5 101.98-20.35 101.66-20.2 101.36-20L101.36-20Q101.01-19.8 100.66-19.5L100.66-19.5 93.56-12.9 100.96-3.55Q101.61-2.65 102.26-2L102.26-2Q102.81-1.45 103.43-0.98 104.06-0.5 104.51-0.5L104.51-0.5 104.51 0ZM135.99-12.9L135.99-3.25Q135.99-2.85 136.09-2.38 136.19-1.9 136.42-1.5 136.64-1.1 136.92-0.8 137.19-0.5 137.59-0.5L137.59-0.5 137.59 0 131.14 0 131.14-0.5Q131.49-0.5 131.79-0.8 132.09-1.1 132.32-1.5 132.54-1.9 132.64-2.38 132.74-2.85 132.74-3.25L132.74-3.25 132.74-12.55Q132.74-14.35 132.24-15.7 131.74-17.05 130.89-17.95 130.04-18.85 128.97-19.28 127.89-19.7 126.79-19.7L126.79-19.7Q125.69-19.7 124.62-19.28 123.54-18.85 122.72-18.1 121.89-17.35 121.37-16.28 120.84-15.2 120.84-13.9L120.84-13.9 120.84-3.25Q120.84-2.85 120.94-2.38 121.04-1.9 121.27-1.5 121.49-1.1 121.77-0.8 122.04-0.5 122.44-0.5L122.44-0.5 122.44 0 115.94 0 115.94-0.5Q116.29-0.5 116.59-0.8 116.89-1.1 117.12-1.5 117.34-1.9 117.44-2.38 117.54-2.85 117.54-3.25L117.54-3.25 117.54-28.8Q117.54-29.65 117.29-30.4 117.04-31.15 115.84-31.2L115.84-31.2 115.84-31.7 120.84-33.25 120.84-18.8Q121.19-19.2 121.74-19.68 122.29-20.15 123.07-20.58 123.84-21 124.87-21.28 125.89-21.55 127.29-21.55L127.29-21.55Q129.64-21.55 131.29-20.75 132.94-19.95 133.99-18.68 135.04-17.4 135.52-15.88 135.99-14.35 135.99-12.9L135.99-12.9ZM168.43 0L163.58 0 163.58-2.55 163.33-2.3Q162.08-1.05 160.45-0.35 158.83 0.35 156.53 0.35L156.53 0.35Q154.78 0.35 153.53-0.05 152.28-0.45 151.48-1.18 150.68-1.9 150.3-2.85 149.93-3.8 149.93-4.85L149.93-4.85Q149.93-6.55 150.85-7.85 151.78-9.15 153.53-10.15 155.28-11.15 157.8-11.98 160.33-12.8 163.58-13.6L163.58-13.6Q163.48-15.55 162.78-16.75 162.08-17.95 161.13-18.63 160.18-19.3 159.13-19.53 158.08-19.75 157.33-19.75L157.33-19.75Q156.03-19.75 155.05-19.35 154.08-18.95 153.35-18.32 152.63-17.7 152.13-16.98 151.63-16.25 151.33-15.6L151.33-15.6 150.88-15.6 150.88-19.25Q151.28-19.3 151.63-19.5 151.98-19.7 152.48-19.9L152.48-19.9Q153.23-20.2 154.53-20.78 155.83-21.35 158.18-21.35L158.18-21.35Q160.93-21.35 162.63-20.65 164.33-19.95 165.25-18.8 166.18-17.65 166.48-16.18 166.78-14.7 166.78-13.15L166.78-13.15 166.78-3.25Q166.78-2.25 167.23-1.38 167.68-0.5 168.43-0.5L168.43-0.5 168.43 0ZM163.03-4.15L163.58-4.75 163.58-11.9 163.08-11.8Q161.88-11.5 160.15-11 158.43-10.5 156.88-9.7 155.33-8.9 154.23-7.8 153.13-6.7 153.13-5.25L153.13-5.25Q153.13-3.65 154.43-2.6 155.73-1.55 157.83-1.55L157.83-1.55Q159.48-1.55 160.73-2.27 161.98-3 163.03-4.15L163.03-4.15ZM196.67-18.3L186.37 7.15Q185.67 9.25 184.59 10 183.52 10.75 182.37 10.75L182.37 10.75Q181.62 10.75 181.04 10.55 180.47 10.35 180.04 10.08 179.62 9.8 179.37 9.55 179.12 9.3 179.07 9.15L179.07 9.15 180.72 5.1Q180.97 6 181.22 6.45L181.22 6.45Q181.47 6.95 181.92 7.35 182.37 7.75 183.02 7.75L183.02 7.75Q184.22 7.75 184.92 6L184.92 6 187.37-0.15 179.32-18.35Q179.07-18.95 178.49-19.73 177.92-20.5 176.92-20.5L176.92-20.5 176.92-21 183.52-21 183.52-20.5Q183.32-20.5 183.02-20.15 182.72-19.8 182.72-19.25L182.72-19.25Q182.72-18.8 182.92-18.45L182.92-18.45 189.07-4.3 194.97-18.75Q195.12-19.1 195.12-19.4L195.12-19.4Q195.12-19.9 194.79-20.2 194.47-20.5 194.12-20.5L194.12-20.5 194.12-21 198.97-21 198.97-20.5Q198.17-20.5 197.59-19.83 197.02-19.15 196.67-18.3L196.67-18.3ZM226.6-10.1L209.25-10.1Q209.45-8.35 210.1-6.78 210.75-5.2 211.83-4 212.9-2.8 214.45-2.08 216-1.35 218.05-1.35L218.05-1.35Q219.15-1.35 220.38-1.68 221.6-2 222.65-2.6 223.7-3.2 224.53-4.08 225.35-4.95 225.65-6.05L225.65-6.05 226.1-6.05 226.1-2.3Q225.8-2.3 225.43-2.1 225.05-1.9 224.55-1.6L224.55-1.6Q223.55-1 221.85-0.33 220.15 0.35 217.35 0.35L217.35 0.35Q215.1 0.35 213.08-0.3 211.05-0.95 209.5-2.3 207.95-3.65 207.03-5.75 206.1-7.85 206.1-10.75L206.1-10.75Q206.1-12.6 206.73-14.5 207.35-16.4 208.63-17.93 209.9-19.45 211.9-20.4 213.9-21.35 216.7-21.35L216.7-21.35Q219.2-21.35 221.08-20.5 222.95-19.65 224.18-18.15 225.4-16.65 226-14.6 226.6-12.55 226.6-10.1L226.6-10.1ZM216.5-19.7L216.5-19.7Q214.75-19.7 213.48-19 212.2-18.3 211.3-17.2 210.4-16.1 209.9-14.7 209.4-13.3 209.25-11.9L209.25-11.9 223.5-11.9Q223.45-13.35 222.98-14.75 222.5-16.15 221.65-17.25 220.8-18.35 219.5-19.03 218.2-19.7 216.5-19.7ZM279.62-12.9L279.62-3.25Q279.62-2.85 279.72-2.38 279.82-1.9 280.05-1.5 280.27-1.1 280.55-0.8 280.82-0.5 281.22-0.5L281.22-0.5 281.22 0 274.77 0 274.77-0.5Q275.12-0.5 275.42-0.8 275.72-1.1 275.95-1.5 276.17-1.9 276.27-2.38 276.37-2.85 276.37-3.25L276.37-3.25 276.37-12.55Q276.37-14.35 275.87-15.7 275.37-17.05 274.52-17.95 273.67-18.85 272.6-19.28 271.52-19.7 270.42-19.7L270.42-19.7Q269.32-19.7 268.25-19.28 267.17-18.85 266.35-18.1 265.52-17.35 265-16.28 264.47-15.2 264.47-13.9L264.47-13.9 264.47-3.25Q264.47-2.85 264.57-2.38 264.67-1.9 264.9-1.5 265.12-1.1 265.4-0.8 265.67-0.5 266.07-0.5L266.07-0.5 266.07 0 259.57 0 259.57-0.5Q259.92-0.5 260.22-0.8 260.52-1.1 260.75-1.5 260.97-1.9 261.07-2.38 261.17-2.85 261.17-3.25L261.17-3.25 261.17-28.8Q261.17-29.65 260.92-30.4 260.67-31.15 259.47-31.2L259.47-31.2 259.47-31.7 264.47-33.25 264.47-18.8Q264.82-19.2 265.37-19.68 265.92-20.15 266.7-20.58 267.47-21 268.5-21.28 269.52-21.55 270.92-21.55L270.92-21.55Q273.27-21.55 274.92-20.75 276.57-19.95 277.62-18.68 278.67-17.4 279.15-15.88 279.62-14.35 279.62-12.9L279.62-12.9ZM312.06 0L307.21 0 307.21-2.55 306.96-2.3Q305.71-1.05 304.08-0.35 302.46 0.35 300.16 0.35L300.16 0.35Q298.41 0.35 297.16-0.05 295.91-0.45 295.11-1.18 294.31-1.9 293.93-2.85 293.56-3.8 293.56-4.85L293.56-4.85Q293.56-6.55 294.48-7.85 295.41-9.15 297.16-10.15 298.91-11.15 301.43-11.98 303.96-12.8 307.21-13.6L307.21-13.6Q307.11-15.55 306.41-16.75 305.71-17.95 304.76-18.63 303.81-19.3 302.76-19.53 301.71-19.75 300.96-19.75L300.96-19.75Q299.66-19.75 298.68-19.35 297.71-18.95 296.98-18.32 296.26-17.7 295.76-16.98 295.26-16.25 294.96-15.6L294.96-15.6 294.51-15.6 294.51-19.25Q294.91-19.3 295.26-19.5 295.61-19.7 296.11-19.9L296.11-19.9Q296.86-20.2 298.16-20.78 299.46-21.35 301.81-21.35L301.81-21.35Q304.56-21.35 306.26-20.65 307.96-19.95 308.88-18.8 309.81-17.65 310.11-16.18 310.41-14.7 310.41-13.15L310.41-13.15 310.41-3.25Q310.41-2.25 310.86-1.38 311.31-0.5 312.06-0.5L312.06-0.5 312.06 0ZM306.66-4.15L307.21-4.75 307.21-11.9 306.71-11.8Q305.51-11.5 303.78-11 302.06-10.5 300.51-9.7 298.96-8.9 297.86-7.8 296.76-6.7 296.76-5.25L296.76-5.25Q296.76-3.65 298.06-2.6 299.36-1.55 301.46-1.55L301.46-1.55Q303.11-1.55 304.36-2.27 305.61-3 306.66-4.15L306.66-4.15ZM331.94 0L325.44 0 325.44-0.5Q325.84-0.5 326.14-0.8 326.44-1.1 326.64-1.5 326.84-1.9 326.94-2.38 327.04-2.85 327.04-3.25L327.04-3.25 327.04-17.1Q327.04-17.95 326.79-18.73 326.54-19.5 325.34-19.55L325.34-19.55 325.34-20 330.34-21.6 330.34-3.25Q330.34-2.85 330.44-2.38 330.54-1.9 330.74-1.5 330.94-1.1 331.24-0.8 331.54-0.5 331.94-0.5L331.94-0.5 331.94 0ZM325.69-26.4L325.69-26.4Q325.69-27.4 326.37-28.1 327.04-28.8 328.04-28.8L328.04-28.8Q329.04-28.8 329.74-28.1 330.44-27.4 330.44-26.4L330.44-26.4Q330.44-25.4 329.74-24.75 329.04-24.1 328.04-24.1L328.04-24.1Q327.04-24.1 326.37-24.75 325.69-25.4 325.69-26.4ZM376.57-19.3L370.97-19.3 370.97-7.25Q370.97-5.95 371.02-4.9 371.07-3.85 371.27-3.15 371.47-2.45 371.87-2.08 372.27-1.7 372.97-1.7L372.97-1.7Q374.02-1.7 374.94-2.7 375.87-3.7 376.12-5.1L376.12-5.1 376.57-5.1 376.57-1.45Q376.12-1.45 375.82-1.15L375.82-1.15Q375.42-0.8 374.69-0.4 373.97 0 372.52 0L372.52 0Q370.72 0 369.72-0.7 368.72-1.4 368.27-2.55 367.82-3.7 367.74-5.1 367.67-6.5 367.67-7.95L367.67-7.95 367.67-19.3 364.87-19.3 364.87-21 367.67-21 367.67-25.45Q367.67-26.3 367.44-27.03 367.22-27.75 365.97-27.8L365.97-27.8 365.97-28.3 370.97-29.9 370.97-21 376.57-21 376.57-19.3ZM406.25 0L401.4 0 401.4-2.55 401.15-2.3Q399.9-1.05 398.28-0.35 396.65 0.35 394.35 0.35L394.35 0.35Q392.6 0.35 391.35-0.05 390.1-0.45 389.3-1.18 388.5-1.9 388.13-2.85 387.75-3.8 387.75-4.85L387.75-4.85Q387.75-6.55 388.68-7.85 389.6-9.15 391.35-10.15 393.1-11.15 395.63-11.98 398.15-12.8 401.4-13.6L401.4-13.6Q401.3-15.55 400.6-16.75 399.9-17.95 398.95-18.63 398-19.3 396.95-19.53 395.9-19.75 395.15-19.75L395.15-19.75Q393.85-19.75 392.88-19.35 391.9-18.95 391.18-18.32 390.45-17.7 389.95-16.98 389.45-16.25 389.15-15.6L389.15-15.6 388.7-15.6 388.7-19.25Q389.1-19.3 389.45-19.5 389.8-19.7 390.3-19.9L390.3-19.9Q391.05-20.2 392.35-20.78 393.65-21.35 396-21.35L396-21.35Q398.75-21.35 400.45-20.65 402.15-19.95 403.08-18.8 404-17.65 404.3-16.18 404.6-14.7 404.6-13.15L404.6-13.15 404.6-3.25Q404.6-2.25 405.05-1.38 405.5-0.5 406.25-0.5L406.25-0.5 406.25 0ZM400.85-4.15L401.4-4.75 401.4-11.9 400.9-11.8Q399.7-11.5 397.98-11 396.25-10.5 394.7-9.7 393.15-8.9 392.05-7.8 390.95-6.7 390.95-5.25L390.95-5.25Q390.95-3.65 392.25-2.6 393.55-1.55 395.65-1.55L395.65-1.55Q397.3-1.55 398.55-2.27 399.8-3 400.85-4.15L400.85-4.15ZM459.92-12.9L459.92-3.25Q459.92-2.85 460.02-2.38 460.12-1.9 460.35-1.5 460.57-1.1 460.85-0.8 461.12-0.5 461.52-0.5L461.52-0.5 461.52 0 455.07 0 455.07-0.5Q455.42-0.5 455.72-0.8 456.02-1.1 456.25-1.5 456.47-1.9 456.57-2.38 456.67-2.85 456.67-3.25L456.67-3.25 456.67-12.55Q456.67-14.35 456.17-15.7 455.67-17.05 454.82-17.95 453.97-18.85 452.9-19.28 451.82-19.7 450.72-19.7L450.72-19.7Q449.62-19.7 448.55-19.28 447.47-18.85 446.65-18.1 445.82-17.35 445.3-16.28 444.77-15.2 444.77-13.9L444.77-13.9 444.77-3.25Q444.77-2.85 444.87-2.38 444.97-1.9 445.2-1.5 445.42-1.1 445.7-0.8 445.97-0.5 446.37-0.5L446.37-0.5 446.37 0 439.87 0 439.87-0.5Q440.22-0.5 440.52-0.8 440.82-1.1 441.05-1.5 441.27-1.9 441.37-2.38 441.47-2.85 441.47-3.25L441.47-3.25 441.47-28.8Q441.47-29.65 441.22-30.4 440.97-31.15 439.77-31.2L439.77-31.2 439.77-31.7 444.77-33.25 444.77-18.8Q445.12-19.2 445.67-19.68 446.22-20.15 447-20.58 447.77-21 448.8-21.28 449.82-21.55 451.22-21.55L451.22-21.55Q453.57-21.55 455.22-20.75 456.87-19.95 457.92-18.68 458.97-17.4 459.45-15.88 459.92-14.35 459.92-12.9L459.92-12.9ZM492.36 0L487.51 0 487.51-2.55 487.26-2.3Q486.01-1.05 484.38-0.35 482.76 0.35 480.46 0.35L480.46 0.35Q478.71 0.35 477.46-0.05 476.21-0.45 475.41-1.18 474.61-1.9 474.23-2.85 473.86-3.8 473.86-4.85L473.86-4.85Q473.86-6.55 474.78-7.85 475.71-9.15 477.46-10.15 479.21-11.15 481.73-11.98 484.26-12.8 487.51-13.6L487.51-13.6Q487.41-15.55 486.71-16.75 486.01-17.95 485.06-18.63 484.11-19.3 483.06-19.53 482.01-19.75 481.26-19.75L481.26-19.75Q479.96-19.75 478.98-19.35 478.01-18.95 477.28-18.32 476.56-17.7 476.06-16.98 475.56-16.25 475.26-15.6L475.26-15.6 474.81-15.6 474.81-19.25Q475.21-19.3 475.56-19.5 475.91-19.7 476.41-19.9L476.41-19.9Q477.16-20.2 478.46-20.78 479.76-21.35 482.11-21.35L482.11-21.35Q484.86-21.35 486.56-20.65 488.26-19.95 489.18-18.8 490.11-17.65 490.41-16.18 490.71-14.7 490.71-13.15L490.71-13.15 490.71-3.25Q490.71-2.25 491.16-1.38 491.61-0.5 492.36-0.5L492.36-0.5 492.36 0ZM486.96-4.15L487.51-4.75 487.51-11.9 487.01-11.8Q485.81-11.5 484.08-11 482.36-10.5 480.81-9.7 479.26-8.9 478.16-7.8 477.06-6.7 477.06-5.25L477.06-5.25Q477.06-3.65 478.36-2.6 479.66-1.55 481.76-1.55L481.76-1.55Q483.41-1.55 484.66-2.27 485.91-3 486.96-4.15L486.96-4.15ZM505.4-19.95L510.35-21.55 510.35-1.05Q510.35 0.5 509.97 1.8 509.6 3.1 509 4.2 508.4 5.3 507.65 6.18 506.9 7.05 506.1 7.75L506.1 7.75Q504.2 9.4 501.85 10.4L501.85 10.4 501.65 9.95Q503.15 9 504.35 7.5L504.35 7.5Q505.35 6.25 506.22 4.33 507.1 2.4 507.1-0.3L507.1-0.3 507.1-17.05Q507.1-17.9 506.85-18.68 506.6-19.45 505.4-19.5L505.4-19.5 505.4-19.95ZM505.95-26.4L505.95-26.4Q505.95-27.4 506.65-28.1 507.35-28.8 508.35-28.8L508.35-28.8Q509.35-28.8 510.02-28.1 510.7-27.4 510.7-26.4L510.7-26.4Q510.7-25.4 510.02-24.75 509.35-24.1 508.35-24.1L508.35-24.1Q507.35-24.1 506.65-24.75 505.95-25.4 505.95-26.4ZM543.18-21.55L543.18-3.25Q543.18-2.9 543.28-2.43 543.38-1.95 543.56-1.53 543.73-1.1 544.03-0.8 544.33-0.5 544.73-0.5L544.73-0.5 544.73 0 539.88 0 539.88-2.75Q539.13-1.65 537.68-0.6 536.23 0.45 533.93 0.45L533.93 0.45Q531.03 0.45 529.33-0.55 527.63-1.55 526.73-3.1 525.83-4.65 525.58-6.48 525.33-8.3 525.33-9.9L525.33-9.9 525.33-17.05Q525.33-17.5 525.31-17.93 525.28-18.35 525.11-18.7 524.93-19.05 524.58-19.28 524.23-19.5 523.58-19.5L523.58-19.5 523.58-19.95 528.63-21.55 528.63-8.8Q528.63-5 530.28-3.2 531.93-1.4 534.33-1.4L534.33-1.4Q535.63-1.4 536.66-1.98 537.68-2.55 538.41-3.35 539.13-4.15 539.51-5 539.88-5.85 539.88-6.4L539.88-6.4 539.88-17.05Q539.88-17.5 539.86-17.93 539.83-18.35 539.66-18.7 539.48-19.05 539.13-19.28 538.78-19.5 538.13-19.5L538.13-19.5 538.13-19.95 543.18-21.55ZM571.17-20.4L569.67-17.35Q569.07-18.35 568.42-18.6 567.77-18.85 566.92-18.85L566.92-18.85Q566.37-18.85 565.74-18.6 565.12-18.35 564.52-17.95 563.92-17.55 563.34-17.07 562.77-16.6 562.37-16.2L562.37-16.2 562.37-3.2Q562.37-2.8 562.47-2.35 562.57-1.9 562.79-1.48 563.02-1.05 563.29-0.78 563.57-0.5 563.97-0.5L563.97-0.5 563.97 0 557.47 0 557.47-0.5Q557.82-0.5 558.12-0.78 558.42-1.05 558.64-1.48 558.87-1.9 558.97-2.35 559.07-2.8 559.07-3.2L559.07-3.2 559.07-17.15Q559.07-17.85 558.62-18.55 558.17-19.25 557.32-19.45L557.32-19.45 557.32-19.85 562.37-21.35 562.37-18.35Q562.82-18.9 563.32-19.43 563.82-19.95 564.44-20.38 565.07-20.8 565.82-21.08 566.57-21.35 567.57-21.35L567.57-21.35Q568.27-21.35 569.37-21.05 570.47-20.75 571.17-20.4L571.17-20.4Z" opacity="1" transform="matrix(1,0,0,1,0,0)" fill="#f9cc0b" class="slogan-text-1" data-fill-palette-color="secondary" id="text-1"></path></svg></g></svg></g></svg></g></svg></g><g transform="matrix(1,0,0,1,145.19871669226555,0)"><svg viewBox="0 0 107.10016661546875 126.82914467621299" height="126.82914467621299" width="107.10016661546875"><g><svg xmlns="http://www.w3.org/2000/svg" xmlns:xlink="http://www.w3.org/1999/xlink" version="1.1" x="0" y="0" viewBox="12 5 76 90" enable-background="new 0 0 100 100" xml:space="preserve" width="107.10016661546875" height="126.82914467621299" class="icon-icon-0" data-fill-palette-color="accent" id="icon-0"><g fill="#f9f9f9" data-fill-palette-color="accent"><path d="M12.45 80.617l14.107-9.025c-0.117-1.273-0.15-4.146 0.504-6.988 0.777-3.379 2.337-4.385 2.183-4.696-0.305-0.611-0.51-4.896-0.879-5.894-0.33-0.889-0.583-1.615-0.583-1.615l-1.725-3.655c-0.615-1.885-1.108-1.726 0.054-2.693h4.85l5.075 6.308 3.233 4.856 5.758-0.996 8.221-4.587c0 0 8.895-4.143 12.189-5.581h7.742c0.368 1.368 0.047 2.723-1.291 3.703-1.041 0.758-4.964 2.63-6.771 4.188C63.309 55.5 52.301 67.057 52.301 67.057l-7.565 5.854-7 5.475L26.168 95C20.412 92.867 14.26 86.414 12.45 80.617L12.45 80.617zM49.733 5C51.869 5 53.6 6.692 53.6 8.776c0 2.086-1.729 3.775-3.867 3.775-2.135 0-3.866-1.689-3.866-3.775C45.867 6.692 47.598 5 49.733 5L49.733 5zM49.733 12.931c14.679 0 26.718 11.028 27.9 25.063h-55.8C23.019 23.959 35.057 12.931 49.733 12.931L49.733 12.931zM14.269 44.564c-1.252 0-2.269-1.022-2.269-2.281 0-1.259 1.017-2.278 2.269-2.278H85.73c1.252 0 2.27 1.02 2.27 2.278 0 1.258-1.018 2.281-2.27 2.281H14.269L14.269 44.564z" fill="#f9f9f9" data-fill-palette-color="accent"></path></g></svg></g></svg></g><g></g></svg></g><defs></defs></svg><rect width="382.72470612666115" height="247.2" fill="none" stroke="none" visibility="hidden"></rect></g></svg></g></svg>